:FULLY-SPECIFIED
:FORCE-ALL-JOINTS-BE-3DOF
:DEGREES
453
root 10.7877 17.4541 27.6639 5.27379 0.725429 2.30315
lfemur -18.5298 3.79649 -28.5385
ltibia 26.0848 0 0
lfoot -12.8194 4.7859 0
ltoes 0.175525 0 0
rfemur -19.928 -2.2228 16.9173
rtibia 65.322 0 0
rfoot -9.03385 -8.22904 0
rtoes -19.185 0 0
lowerback -5.46103 -1.19009 -2.89908
upperback -1.51008 -1.4461 1.33129
thorax 1.61044 -0.730318 2.89373
lowerneck -21.0633 -4.02478 -11.8108
upperneck 24.3227 -4.72332 10.6339
head 12.0458 -1.87032 5.24813
lclavicle -4.33251e-14 3.38839e-15 0
lhumerus -25.5313 -12.0859 89.7767
lradius 20.7877 0 0
lwrist -4.56106 0 0
lhand -11.2191 -23.4344 0
lfingers 7.12502 0 0
lthumb 14.8095 6.01671 0
rclavicle -4.33251e-14 3.38839e-15 0
rhumerus -45.4719 10.5887 -88.284
rradius 34.3083 0 0
rwrist -12.6891 0 0
rhand -30.4029 -31.7239 0
rfingers 7.12502 0 0
rthumb -3.70659 -61.6715 0
454
root 10.7873 17.4459 27.7925 5.24118 0.812574 2.45607
lfemur -17.7604 3.78532 -28.7207
ltibia 25.7122 0 0
lfoot -12.9223 4.72587 0
ltoes 0.360386 0 0
rfemur -20.6949 -2.06501 16.5948
rtibia 65.4434 0 0
rfoot -9.38099 -8.39383 0
rtoes -18.9223 0 0
lowerback -5.43094 -1.29897 -3.0113
upperback -1.49665 -1.58085 1.30313
thorax 1.61845 -0.799373 2.91244
lowerneck -21.1041 -3.97701 -11.7667
upperneck 24.3672 -4.66429 10.6148
head 12.0602 -1.8411 5.24513
lclavicle -4.27431e-14 3.99222e-15 0
lhumerus -25.0471 -12.3002 89.654
lradius 20.9417 0 0
lwrist -4.50988 0 0
lhand -11.3201 -23.5028 0
lfingers 7.12502 0 0
lthumb 14.7122 5.9557 0
rclavicle -4.27431e-14 3.99222e-15 0
rhumerus -45.7052 10.5102 -88.2608
rradius 34.2961 0 0
rwrist -12.7399 0 0
rhand -30.3937 -31.6777 0
rfingers 7.12502 0 0
rthumb -3.69763 -61.6254 0
455
root 10.7868 17.4376 27.921 5.21028 0.904165 2.60312
lfemur -16.9607 3.76804 -28.887
ltibia 25.2953 0 0
lfoot -13.0249 4.67116 0
ltoes 0.53454 0 0
rfemur -21.4561 -1.87194 16.272
rtibia 65.432 0 0
rfoot -9.75739 -8.54272 0
rtoes -18.6226 0 0
lowerback -5.40521 -1.4095 -3.12105
upperback -1.47986 -1.71817 1.27696
thorax 1.63332 -0.869843 2.9316
lowerneck -21.1455 -3.92889 -11.7209
upperneck 24.4105 -4.60627 10.5993
head 12.0747 -1.81174 5.24308
lclavicle -4.20007e-14 4.59411e-15 0
lhumerus -24.5736 -12.5313 89.5312
lradius 21.1256 0 0
lwrist -4.42919 0 0
lhand -11.4215 -23.5732 0
lfingers 7.12502 0 0
lthumb 14.6145 5.89259 0
rclavicle -4.20007e-14 4.59411e-15 0
rhumerus -45.9309 10.4302 -88.2317
rradius 34.2906 0 0
rwrist -12.8045 0 0
rhand -30.3809 -31.6092 0
rfingers 7.12502 0 0
rthumb -3.68527 -61.5571 0
456
root 10.7863 17.4294 28.0496 5.18105 0.999925 2.74443
lfemur -16.1327 3.74495 -29.0379
ltibia 24.8364 0 0
lfoot -13.1271 4.62156 0
ltoes 0.698344 0 0
rfemur -22.2114 -1.64536 15.9491
rtibia 65.2941 0 0
rfoot -10.1614 -8.67634 0
rtoes -18.2876 0 0
lowerback -5.38364 -1.52151 -3.22835
upperback -1.45987 -1.85785 1.25271
thorax 1.65474 -0.941607 2.95115
lowerneck -21.1874 -3.88048 -11.6736
upperneck 24.4526 -4.54923 10.5871
head 12.0891 -1.78227 5.24192
lclavicle -4.11059e-14 5.19367e-15 0
lhumerus -24.1107 -12.7783 89.4083
lradius 21.3379 0 0
lwrist -4.3204 0 0
lhand -11.5233 -23.6455 0
lfingers 7.12502 0 0
lthumb 14.5165 5.82752 0
rclavicle -4.11059e-14 5.19367e-15 0
rhumerus -46.1492 10.3488 -88.197
rradius 34.2915 0 0
rwrist -12.8822 0 0
rhand -30.3647 -31.5196 0
rfingers 7.12502 0 0
rthumb -3.66966 -61.4677 0
457
root 10.7859 17.4212 28.1782 5.15342 1.09958 2.88018
lfemur -15.2784 3.71633 -29.1741
ltibia 24.3379 0 0
lfoot -13.2288 4.57688 0
ltoes 0.852156 0 0
rfemur -22.9603 -1.38707 15.6265
rtibia 65.0356 0 0
rfoot -10.5914 -8.7953 0
rtoes -17.9194 0 0
lowerback -5.36607 -1.63485 -3.33323
upperback -1.43685 -1.99966 1.23031
thorax 1.68237 -1.01455 2.97107
lowerneck -21.2296 -3.83183 -11.625
upperneck 24.4935 -4.49319 10.5783
head 12.1034 -1.75271 5.24162
lclavicle -4.00667e-14 5.79053e-15 0
lhumerus -23.6582 -13.0402 89.2855
lradius 21.5771 0 0
lwrist -4.18494 0 0
lhand -11.6253 -23.7195 0
lfingers 7.12502 0 0
lthumb 14.4182 5.76065 0
rclavicle -4.00667e-14 5.79053e-15 0
rhumerus -46.3602 10.2661 -88.157
rradius 34.2984 0 0
rwrist -12.9725 0 0
rhand -30.3453 -31.4098 0
rfingers 7.12502 0 0
rthumb -3.65098 -61.3582 0
458
root 10.7854 17.413 28.3068 5.12734 1.20285 3.01051
lfemur -14.3999 3.68249 -29.2961
ltibia 23.802 0 0
lfoot -13.33 4.53691 0
ltoes 0.996334 0 0
rfemur -23.7027 -1.09882 15.3044
rtibia 64.6629 0 0
rfoot -11.0457 -8.90021 0
rtoes -17.52 0 0
lowerback -5.3523 -1.74935 -3.43573
upperback -1.41097 -2.14336 1.20968
thorax 1.71589 -1.08854 2.99133
lowerneck -21.2722 -3.783 -11.5751
upperneck 24.5333 -4.43814 10.5725
head 12.1177 -1.72311 5.24214
lclavicle -3.8891e-14 6.38431e-15 0
lhumerus -23.2161 -13.3161 89.1628
lradius 21.8416 0 0
lwrist -4.02423 0 0
lhand -11.7274 -23.795 0
lfingers 7.12502 0 0
lthumb 14.3198 5.69212 0
rclavicle -3.8891e-14 6.38431e-15 0
rhumerus -46.5641 10.1823 -88.112
rradius 34.311 0 0
rwrist -13.0744 0 0
rhand -30.323 -31.2811 0
rfingers 7.12502 0 0
rthumb -3.62939 -61.2297 0
459
root 10.785 17.4047 28.4354 5.10276 1.30945 3.13559
lfemur -13.4992 3.64372 -29.4047
ltibia 23.2313 0 0
lfoot -13.4306 4.50145 0
ltoes 1.13124 0 0
rfemur -24.438 -0.782406 14.9831
rtibia 64.1819 0 0
rfoot -11.5226 -8.99169 0
rtoes -17.0912 0 0
lowerback -5.34217 -1.86485 -3.53586
upperback -1.3824 -2.28874 1.19077
thorax 1.75496 -1.16347 3.01188
lowerneck -21.3151 -3.73404 -11.5241
upperneck 24.5719 -4.38408 10.5698
head 12.1319 -1.69348 5.24343
lclavicle -3.75868e-14 6.97461e-15 0
lhumerus -22.7842 -13.605 89.0404
lradius 22.13 0 0
lwrist -3.8397 0 0
lhand -11.8295 -23.872 0
lfingers 7.12502 0 0
lthumb 14.2214 5.62208 0
rclavicle -3.75868e-14 6.97461e-15 0
rhumerus -46.761 10.0976 -88.0623
rradius 34.3291 0 0
rwrist -13.1875 0 0
rhand -30.2978 -31.1344 0
rfingers 7.12502 0 0
rthumb -3.60506 -61.0834 0
460
root 10.7845 17.3965 28.564 5.07962 1.41912 3.25556
lfemur -12.5783 3.60031 -29.5003
ltibia 22.6281 0 0
lfoot -13.5306 4.47029 0
ltoes 1.25722 0 0
rfemur -25.1661 -0.439599 14.6628
rtibia 63.5988 0 0
rfoot -12.0206 -9.07036 0
rtoes -16.635 0 0
lowerback -5.33548 -1.98119 -3.63367
upperback -1.3513 -2.43556 1.17349
thorax 1.79926 -1.23921 3.03269
lowerneck -21.3582 -3.68501 -11.472
upperneck 24.6095 -4.33101 10.5698
head 12.146 -1.66386 5.24545
lclavicle -3.61621e-14 7.56107e-15 0
lhumerus -22.3623 -13.9059 88.9183
lradius 22.4406 0 0
lwrist -3.63277 0 0
lhand -11.9316 -23.9503 0
lfingers 7.12502 0 0
lthumb 14.123 5.55067 0
rclavicle -3.61621e-14 7.56107e-15 0
rhumerus -46.9512 10.0119 -88.0082
rradius 34.3524 0 0
rwrist -13.3109 0 0
rhand -30.2699 -30.9708 0
rfingers 7.12502 0 0
rthumb -3.57815 -60.9202 0
461
root 10.784 17.3883 28.6925 5.05787 1.53158 3.37059
lfemur -11.6391 3.55256 -29.5836
ltibia 21.9946 0 0
lfoot -13.6299 4.44324 0
ltoes 1.37464 0 0
rfemur -25.8865 -0.0721776 14.3438
rtibia 62.9198 0 0
rfoot -12.538 -9.13683 0
rtoes -16.1534 0 0
lowerback -5.33206 -2.0982 -3.72917
upperback -1.31784 -2.58361 1.15777
thorax 1.84846 -1.31565 3.05373
lowerneck -21.4015 -3.63595 -11.4189
upperneck 24.646 -4.27893 10.5725
head 12.1601 -1.63427 5.24816
lclavicle -3.46249e-14 8.1433e-15 0
lhumerus -21.9505 -14.218 88.7967
lradius 22.772 0 0
lwrist -3.40487 0 0
lhand -12.0335 -24.0297 0
lfingers 7.12502 0 0
lthumb 14.0248 5.47803 0
rclavicle -3.46249e-14 8.1433e-15 0
rhumerus -47.1348 9.92556 -87.95
rradius 34.3804 0 0
rwrist -13.4441 0 0
rhand -30.2396 -30.7915 0
rfingers 7.12502 0 0
rthumb -3.54884 -60.7413 0
462
root 10.7836 17.3801 28.8211 5.03745 1.64655 3.48083
lfemur -10.6839 3.50077 -29.6552
ltibia 21.3335 0 0
lfoot -13.7284 4.4201 0
ltoes 1.48386 0 0
rfemur -26.599 0.318081 14.0263
rtibia 62.151 0 0
rfoot -13.0732 -9.19173 0
rtoes -15.6483 0 0
lowerback -5.33173 -2.21572 -3.82239
upperback -1.2822 -2.73265 1.14354
thorax 1.90224 -1.39265 3.07496
lowerneck -21.445 -3.58692 -11.365
upperneck 24.6814 -4.22784 10.5777
head 12.174 -1.60475 5.25151
lclavicle -3.29831e-14 8.72092e-15 0
lhumerus -21.5485 -14.5402 88.6757
lradius 23.1226 0 0
lwrist -3.15742 0 0
lhand -12.1352 -24.11 0
lfingers 7.12502 0 0
lthumb 13.9269 5.40432 0
rclavicle -3.29831e-14 8.72092e-15 0
rhumerus -47.312 9.8386 -87.888
rradius 34.4131 0 0
rwrist -13.5862 0 0
rhand -30.2069 -30.5975 0
rfingers 7.12502 0 0
rthumb -3.51728 -60.5477 0
463
root 10.7831 17.3719 28.9497 5.0183 1.76375 3.58643
lfemur -9.7145 3.44523 -29.7157
ltibia 20.6468 0 0
lfoot -13.8261 4.40065 0
ltoes 1.58523 0 0
rfemur -27.3031 0.729399 13.7107
rtibia 61.2984 0 0
rfoot -13.6245 -9.23566 0
rtoes -15.1216 0 0
lowerback -5.33431 -2.3336 -3.91336
upperback -1.24453 -2.88246 1.13074
thorax 1.96025 -1.47011 3.09635
lowerneck -21.4885 -3.53797 -11.3105
upperneck 24.7157 -4.17774 10.5852
head 12.1879 -1.57533 5.25548
lclavicle -3.12447e-14 9.29355e-15 0
lhumerus -21.1562 -14.8715 88.5554
lradius 23.491 0 0
lwrist -2.89185 0 0
lhand -12.2364 -24.1912 0
lfingers 7.12502 0 0
lthumb 13.8293 5.32968 0
rclavicle -3.12447e-14 9.29355e-15 0
rhumerus -47.4829 9.75119 -87.8224
rradius 34.4499 0 0
rwrist -13.7367 0 0
rhand -30.1721 -30.3898 0
rfingers 7.12502 0 0
rthumb -3.48365 -60.3405 0
464
root 10.7826 17.3636 29.0783 5.00038 1.88291 3.68756
lfemur -8.733 3.38624 -29.7657
ltibia 19.9372 0 0
lfoot -13.9228 4.3847 0
ltoes 1.67911 0 0
rfemur -27.9986 1.16 13.3972
rtibia 60.3683 0 0
rfoot -14.1902 -9.26924 0
rtoes -14.5753 0 0
lowerback -5.33961 -2.45166 -4.00212
upperback -1.20502 -3.03282 1.11929
thorax 2.02219 -1.54791 3.11786
lowerneck -21.532 -3.48916 -11.2553
upperneck 24.7491 -4.12863 10.5949
head 12.2016 -1.54602 5.26
lclavicle -2.94177e-14 9.86081e-15 0
lhumerus -20.7735 -15.2111 88.4358
lradius 23.8756 0 0
lwrist -2.60957 0 0
lhand -12.3373 -24.2731 0
lfingers 7.12502 0 0
lthumb 13.7321 5.25426 0
rclavicle -2.94177e-14 9.86081e-15 0
rhumerus -47.6479 9.66344 -87.7536
rradius 34.4907 0 0
rwrist -13.8948 0 0
rhand -30.1353 -30.1697 0
rfingers 7.12502 0 0
rthumb -3.44811 -60.1208 0
